<svg id="Layer_1" data-name="Layer 1" xmlns="http://www.w3.org/2000/svg" viewBox="0 0 44.5 41"><defs><style>.cls-1{fill:none;stroke:#ccc;stroke-miterlimit:10;}.cls-2{fill:#ccc;}</style></defs><title>hamburger</title><line class="cls-1" x1="3.5" y1="3.5" x2="41" y2="3.5"/><path class="cls-2" d="M325.85,324.5a2.5,2.5,0,0,1,0,5h-37.5a2.5,2.5,0,0,1,0-5h37.5m0-1h-37.5a3.5,3.5,0,0,0,0,7h37.5a3.5,3.5,0,0,0,0-7Z" transform="translate(-284.85 -323.5)"/><line class="cls-1" x1="3.5" y1="20.5" x2="41" y2="20.5"/><path class="cls-2" d="M325.85,341.5a2.5,2.5,0,0,1,0,5h-37.5a2.5,2.5,0,0,1,0-5h37.5m0-1h-37.5a3.5,3.5,0,0,0,0,7h37.5a3.5,3.5,0,0,0,0-7Z" transform="translate(-284.85 -323.5)"/><line class="cls-1" x1="3.5" y1="37.5" x2="41" y2="37.5"/><path class="cls-2" d="M325.85,358.5a2.5,2.5,0,0,1,0,5h-37.5a2.5,2.5,0,0,1,0-5h37.5m0-1h-37.5a3.5,3.5,0,0,0,0,7h37.5a3.5,3.5,0,0,0,0-7Z" transform="translate(-284.85 -323.5)"/></svg>