<svg id="Layer_1" data-name="Layer 1" xmlns="http://www.w3.org/2000/svg" viewBox="0 0 318.94 312.33"><defs><style>.cls-1{fill:#fff;}.cls-2{fill:#62afa4;}.cls-3{fill:#b8ecd5;}.cls-4{fill:#666;}</style></defs><title>buda-munt-logo</title><ellipse class="cls-1" cx="196.52" cy="193.18" rx="160.06" ry="121.4" transform="matrix(0.67, -0.75, 0.75, 0.67, -113.54, 173.73)"/><ellipse class="cls-2" cx="194.09" cy="192.79" rx="136.79" ry="110.64" transform="translate(-114.2 142.05) rotate(-41.97)"/><path class="cls-3" d="M163.72,349.51c-41.56,0-77.53-16.15-101.28-45.48C38,273.85,29.53,233.71,38.61,191c8.75-41.19,32.93-79.83,68.07-108.81s77.34-45,118.66-45c41.56,0,77.53,16.15,101.28,45.48,24.44,30.19,32.91,70.32,23.83,113-8.75,41.19-32.93,79.83-68.07,108.82S205,349.51,163.72,349.51ZM225.34,59.65c-74.9,0-148.81,61-164.75,136-7.64,35.94-.78,69.4,19.31,94.21,19.4,24,49.17,37.15,83.82,37.15,74.9,0,148.81-61,164.75-136,7.64-35.94.78-69.39-19.31-94.21C289.76,72.85,260,59.65,225.34,59.65Z" transform="translate(-35.06 -37.18)"/><ellipse class="cls-3" cx="194.53" cy="193.35" rx="109.93" ry="88.92" transform="translate(-114.46 142.49) rotate(-41.97)"/><path class="cls-4" d="M147.47,247.49a1,1,0,0,1-.78-.37,1.06,1.06,0,0,1-.2-.84L168.2,144.17a1,1,0,0,1,1-.79h44.37c10.59,0,18.63,2.64,23.89,7.86s7.15,12,5.43,20.11c-2.31,10.86-9.79,18.59-22.26,23a19.55,19.55,0,0,1,11.54,8.23c3.2,5,4.1,10.84,2.69,17.48a31.62,31.62,0,0,1-13.48,20c-7.12,4.9-16.22,7.38-27,7.38Zm47.66-20.91a13.63,13.63,0,0,0,8.47-2.85,12.92,12.92,0,0,0,4.77-7.85c.7-3.26.3-5.87-1.18-7.75s-3.73-2.82-6.83-2.82H182.12l-4.52,21.27Zm6.49-42.18a14.55,14.55,0,0,0,8.66-2.58,12,12,0,0,0,4.62-7.61c.71-3.33.3-5.75-1.26-7.4s-4-2.52-7.32-2.52H190.84l-4.28,20.11Z" transform="translate(-35.06 -37.18)"/><path class="cls-1" d="M213.54,144.38q15.56,0,23.19,7.57t5.15,19.2q-3.67,17.31-25.19,23.41,10,1.45,14.61,8.58t2.55,16.73a30.5,30.5,0,0,1-13.07,19.42q-10.47,7.2-26.47,7.2H147.47l21.7-102.11h44.37m-28.21,41h16.29a15.47,15.47,0,0,0,9.24-2.76,13,13,0,0,0,5-8.22q1.16-5.46-1.51-8.29c-1.78-1.89-4.47-2.84-8.05-2.84H190l-4.7,22.11m-9,42.18h18.77a14.53,14.53,0,0,0,9.08-3.06,13.8,13.8,0,0,0,5.14-8.43q1.14-5.39-1.38-8.58c-1.68-2.13-4.21-3.2-7.61-3.2H181.31l-4.95,23.27m37.18-85.2H169.17a2,2,0,0,0-1.95,1.59l-21.7,102.1a2,2,0,0,0,.4,1.68,2,2,0,0,0,1.55.74h46.84c11,0,20.31-2.54,27.6-7.55a32.58,32.58,0,0,0,13.9-20.65c1.47-6.91.52-13-2.83-18.23a19.87,19.87,0,0,0-9.46-7.74c11.28-4.68,18.1-12.31,20.32-22.76,1.79-8.43-.13-15.5-5.7-21s-13.73-8.15-24.6-8.15Zm-21.89,22.91h14.67c3,0,5.21.74,6.59,2.21s1.65,3.52,1,6.5a10.94,10.94,0,0,1-4.22,7,13.39,13.39,0,0,1-8.08,2.39H187.8l3.85-18.11Zm-8.72,41h17.43c2.77,0,4.75.79,6,2.44s1.63,3.92,1,6.92a11.79,11.79,0,0,1-4.39,7.27,12.58,12.58,0,0,1-7.87,2.64h-16.3l4.1-19.27Z" transform="translate(-35.06 -37.18)"/></svg>